<?xml version="1.0" encoding="iso-8859-1"?>
<!-- Generator: Adobe Illustrator 19.0.0, SVG Export Plug-In . SVG Version: 6.00 Build 0)  -->
<svg version="1.1" id="Layer_1" xmlns="http://www.w3.org/2000/svg" xmlns:xlink="http://www.w3.org/1999/xlink" x="0px" y="0px"
	 viewBox="0 0 504.121 504.121" style="enable-background:new 0 0 504.121 504.121;" xml:space="preserve">
<path style="fill:#6D4116;" d="M488.388,371.797c25.592,25.576,17.195,53.823-5.411,76.422
	c-22.615,22.607-50.846,30.996-76.43,5.411S119.118,129.59,141.733,106.975C164.331,84.376,462.796,346.205,488.388,371.797z"/>
<path style="fill:#593418;" d="M141.733,106.975c22.599-22.599,321.063,239.23,346.656,264.822
	c25.592,25.576,17.195,53.823-5.411,76.422"/>
<path style="fill:#97AFC6;" d="M229.781,87.448c11.729,11.729,11.737,30.783,0,42.52l-94.389,126.275
	c-11.744,11.745-18.44,24.103-30.184,12.351L4.737,168.132C-7,156.387,5.351,149.692,17.088,137.947l126.275-94.389
	c11.744-11.737,30.799-11.729,42.535,0.016L229.781,87.448z"/>
<g>
	<path style="fill:#B6C9D8;" d="M105.207,268.602L4.737,168.132C-7,156.387,5.351,149.692,17.088,137.947"/>
</g>
<path style="fill:#A50707;" d="M143.363,43.558L25.824,131.417c-0.882,3.411,0.142,6.987,4.387,11.24l100.478,100.478
	c4.254,4.246,7.83,5.27,11.24,4.387l87.851-117.555c11.737-11.737,11.729-30.791,0-42.52l-43.874-43.867
	C174.162,31.829,155.108,31.822,143.363,43.558z"/>
<path style="fill:#8C0909;" d="M130.689,243.128c4.254,4.246,7.83,5.27,11.24,4.387l87.851-117.547
	c11.737-11.737,11.729-30.791,0-42.52l-43.874-43.867c-11.737-11.744-30.791-11.752-42.535-0.016"/>
<g>
	<path style="fill:#8E5A2B;" d="M300.783,199.112c2.276,2.276,2.276,5.971,0,8.239l-58.667,58.667c-2.269,2.269-5.963,2.269-8.239,0
		l0,0c-2.276-2.269-2.276-5.971,0-8.239l58.667-58.667C294.813,196.843,298.507,196.843,300.783,199.112L300.783,199.112z"/>
	<path style="fill:#8E5A2B;" d="M310.039,208.375c2.269,2.276,2.269,5.979,0,8.247l-58.667,58.667c-2.269,2.261-5.963,2.261-8.239,0
		l0,0c-2.276-2.269-2.276-5.979,0-8.247l58.659-58.667C304.076,206.106,307.77,206.106,310.039,208.375L310.039,208.375z"/>
	<path style="fill:#8E5A2B;" d="M319.302,217.646c2.276,2.276,2.269,5.971,0,8.239l-58.659,58.667c-2.276,2.269-5.971,2.276-8.247,0
		l0,0c-2.269-2.269-2.269-5.963,0-8.231l58.675-58.675C313.339,215.377,317.041,215.377,319.302,217.646L319.302,217.646z"/>
</g>
<g>
</g>
<g>
</g>
<g>
</g>
<g>
</g>
<g>
</g>
<g>
</g>
<g>
</g>
<g>
</g>
<g>
</g>
<g>
</g>
<g>
</g>
<g>
</g>
<g>
</g>
<g>
</g>
<g>
</g>
</svg>
